<?xml version="1.0" standalone="yes"?>
<svg xmlns="http://www.w3.org/2000/svg" width="524" height="524" viewBox="0 0 524 524" shape-rendering="crispEdges">
  <rect x="0" y="0" width="524" height="524" fill="#ffffff"/>
  <g transform="translate(77 77) rotate(45 185 185)">
  <path d="M 40 320 L 50 330 L 42.928932188134524 337.0710678118655 L 32.928932188134524 327.0710678118655 Z" fill="#000000"/>
  <path d="M 40 310 L 60 330 L 52.928932188134524 337.0710678118655 L 32.928932188134524 317.0710678118655 Z" fill="#000000"/>
  <path d="M 40 300 L 50 310 L 42.928932188134524 317.0710678118655 L 32.928932188134524 307.0710678118655 Z" fill="#000000"/>
  <path d="M 60 320 L 70 330 L 62.928932188134524 337.0710678118655 L 52.928932188134524 327.0710678118655 Z" fill="#000000"/>
  <path d="M 40 290 L 50 300 L 42.928932188134524 307.0710678118655 L 32.928932188134524 297.0710678118655 Z" fill="#000000"/>
  <path d="M 70 320 L 80 330 L 72.92893218813452 337.0710678118655 L 62.928932188134524 327.0710678118655 Z" fill="#000000"/>
  <path d="M 40 280 L 50 290 L 42.928932188134524 297.0710678118655 L 32.928932188134524 287.0710678118655 Z" fill="#000000"/>
  <path d="M 60 300 L 70 310 L 62.928932188134524 317.0710678118655 L 52.928932188134524 307.0710678118655 Z" fill="#000000"/>
  <path d="M 80 320 L 90 330 L 82.92893218813452 337.0710678118655 L 72.92893218813452 327.0710678118655 Z" fill="#000000"/>
  <path d="M 40 270 L 50 280 L 42.928932188134524 287.0710678118655 L 32.928932188134524 277.0710678118655 Z" fill="#000000"/>
  <path d="M 60 290 L 80 310 L 72.92893218813452 317.0710678118655 L 52.928932188134524 297.0710678118655 Z" fill="#000000"/>
  <path d="M 90 320 L 100 330 L 92.92893218813452 337.0710678118655 L 82.92893218813452 327.0710678118655 Z" fill="#000000"/>
  <path d="M 40 260 L 50 270 L 42.928932188134524 277.0710678118655 L 32.928932188134524 267.0710678118655 Z" fill="#000000"/>
  <path d="M 60 280 L 90 310 L 82.92893218813452 317.0710678118655 L 52.928932188134524 287.0710678118655 Z" fill="#000000"/>
  <path d="M 100 320 L 110 330 L 102.92893218813452 337.0710678118655 L 92.92893218813452 327.0710678118655 Z" fill="#000000"/>
  <path d="M 50 260 L 60 270 L 52.928932188134524 277.0710678118655 L 42.928932188134524 267.0710678118655 Z" fill="#000000"/>
  <path d="M 70 280 L 90 300 L 82.92893218813452 307.0710678118655 L 62.928932188134524 287.0710678118655 Z" fill="#000000"/>
  <path d="M 100 310 L 110 320 L 102.92893218813452 327.0710678118655 L 92.92893218813452 317.0710678118655 Z" fill="#000000"/>
  <path d="M 40 240 L 50 250 L 42.928932188134524 257.0710678118655 L 32.928932188134524 247.07106781186548 Z" fill="#000000"/>
  <path d="M 60 260 L 70 270 L 62.928932188134524 277.0710678118655 L 52.928932188134524 267.0710678118655 Z" fill="#000000"/>
  <path d="M 80 280 L 90 290 L 82.92893218813452 297.0710678118655 L 72.92893218813452 287.0710678118655 Z" fill="#000000"/>
  <path d="M 100 300 L 110 310 L 102.92893218813452 317.0710678118655 L 92.92893218813452 307.0710678118655 Z" fill="#000000"/>
  <path d="M 120 320 L 130 330 L 122.92893218813452 337.0710678118655 L 112.92893218813452 327.0710678118655 Z" fill="#000000"/>
  <path d="M 40 230 L 50 240 L 42.928932188134524 247.07106781186548 L 32.928932188134524 237.07106781186548 Z" fill="#000000"/>
  <path d="M 70 260 L 80 270 L 72.92893218813452 277.0710678118655 L 62.928932188134524 267.0710678118655 Z" fill="#000000"/>
  <path d="M 100 290 L 110 300 L 102.92893218813452 307.0710678118655 L 92.92893218813452 297.0710678118655 Z" fill="#000000"/>
  <path d="M 130 320 L 140 330 L 132.92893218813452 337.0710678118655 L 122.92893218813452 327.0710678118655 Z" fill="#000000"/>
  <path d="M 40 220 L 50 230 L 42.928932188134524 237.07106781186548 L 32.928932188134524 227.07106781186548 Z" fill="#000000"/>
  <path d="M 80 260 L 90 270 L 82.92893218813452 277.0710678118655 L 72.92893218813452 267.0710678118655 Z" fill="#000000"/>
  <path d="M 100 280 L 110 290 L 102.92893218813452 297.0710678118655 L 92.92893218813452 287.0710678118655 Z" fill="#000000"/>
  <path d="M 120 300 L 130 310 L 122.92893218813452 317.0710678118655 L 112.92893218813452 307.0710678118655 Z" fill="#000000"/>
  <path d="M 40 210 L 50 220 L 42.928932188134524 227.07106781186548 L 32.928932188134524 217.07106781186548 Z" fill="#000000"/>
  <path d="M 90 260 L 110 280 L 102.92893218813452 287.0710678118655 L 82.92893218813452 267.0710678118655 Z" fill="#000000"/>
  <path d="M 120 290 L 130 300 L 122.92893218813452 307.0710678118655 L 112.92893218813452 297.0710678118655 Z" fill="#000000"/>
  <path d="M 140 310 L 160 330 L 152.92893218813452 337.0710678118655 L 132.92893218813452 317.0710678118655 Z" fill="#000000"/>
  <path d="M 80 240 L 90 250 L 82.92893218813452 257.0710678118655 L 72.92893218813452 247.07106781186548 Z" fill="#000000"/>
  <path d="M 100 260 L 110 270 L 102.92893218813452 277.0710678118655 L 92.92893218813452 267.0710678118655 Z" fill="#000000"/>
  <path d="M 120 280 L 170 330 L 162.92893218813452 337.0710678118655 L 112.92893218813452 287.0710678118655 Z" fill="#000000"/>
  <path d="M 40 190 L 70 220 L 62.928932188134524 227.07106781186548 L 32.928932188134524 197.07106781186548 Z" fill="#000000"/>
  <path d="M 80 230 L 100 250 L 92.92893218813452 257.0710678118655 L 72.92893218813452 237.07106781186548 Z" fill="#000000"/>
  <path d="M 120 270 L 130 280 L 122.92893218813452 287.0710678118655 L 112.92893218813452 277.0710678118655 Z" fill="#000000"/>
  <path d="M 160 310 L 180 330 L 172.92893218813452 337.0710678118655 L 152.92893218813452 317.0710678118655 Z" fill="#000000"/>
  <path d="M 60 200 L 80 220 L 72.92893218813452 227.07106781186548 L 52.928932188134524 207.07106781186548 Z" fill="#000000"/>
  <path d="M 90 230 L 110 250 L 102.92893218813452 257.0710678118655 L 82.92893218813452 237.07106781186548 Z" fill="#000000"/>
  <path d="M 130 270 L 180 320 L 172.92893218813452 327.0710678118655 L 122.92893218813452 277.0710678118655 Z" fill="#000000"/>
  <path d="M 40 170 L 60 190 L 52.928932188134524 197.07106781186548 L 32.928932188134524 177.07106781186548 Z" fill="#000000"/>
  <path d="M 70 200 L 90 220 L 82.92893218813452 227.07106781186548 L 62.928932188134524 207.07106781186548 Z" fill="#000000"/>
  <path d="M 120 250 L 130 260 L 122.92893218813452 267.0710678118655 L 112.92893218813452 257.0710678118655 Z" fill="#000000"/>
  <path d="M 140 270 L 150 280 L 142.92893218813452 287.0710678118655 L 132.92893218813452 277.0710678118655 Z" fill="#000000"/>
  <path d="M 160 290 L 170 300 L 162.92893218813452 307.0710678118655 L 152.92893218813452 297.0710678118655 Z" fill="#000000"/>
  <path d="M 40 160 L 60 180 L 52.928932188134524 187.07106781186548 L 32.928932188134524 167.07106781186548 Z" fill="#000000"/>
  <path d="M 80 200 L 150 270 L 142.92893218813452 277.0710678118655 L 72.92893218813452 207.07106781186548 Z" fill="#000000"/>
  <path d="M 200 320 L 210 330 L 202.92893218813452 337.0710678118655 L 192.92893218813452 327.0710678118655 Z" fill="#000000"/>
  <path d="M 60 170 L 70 180 L 62.928932188134524 187.07106781186548 L 52.928932188134524 177.07106781186548 Z" fill="#000000"/>
  <path d="M 80 190 L 100 210 L 92.92893218813452 217.07106781186548 L 72.92893218813452 197.07106781186548 Z" fill="#000000"/>
  <path d="M 110 220 L 120 230 L 112.92893218813452 237.07106781186548 L 102.92893218813452 227.07106781186548 Z" fill="#000000"/>
  <path d="M 130 240 L 150 260 L 142.92893218813452 267.0710678118655 L 122.92893218813452 247.07106781186548 Z" fill="#000000"/>
  <path d="M 200 310 L 210 320 L 202.92893218813452 327.0710678118655 L 192.92893218813452 317.0710678118655 Z" fill="#000000"/>
  <path d="M 50 150 L 80 180 L 72.92893218813452 187.07106781186548 L 42.928932188134524 157.07106781186548 Z" fill="#000000"/>
  <path d="M 90 190 L 160 260 L 152.92893218813452 267.0710678118655 L 82.92893218813452 197.07106781186548 Z" fill="#000000"/>
  <path d="M 170 270 L 200 300 L 192.92893218813452 307.0710678118655 L 162.92893218813452 277.0710678118655 Z" fill="#000000"/>
  <path d="M 220 320 L 230 330 L 222.92893218813452 337.0710678118655 L 212.92893218813452 327.0710678118655 Z" fill="#000000"/>
  <path d="M 90 180 L 100 190 L 92.92893218813452 197.07106781186548 L 82.92893218813452 187.07106781186548 Z" fill="#000000"/>
  <path d="M 110 200 L 120 210 L 112.92893218813452 217.07106781186548 L 102.92893218813452 207.07106781186548 Z" fill="#000000"/>
  <path d="M 150 240 L 180 270 L 172.92893218813452 277.0710678118655 L 142.92893218813452 247.07106781186548 Z" fill="#000000"/>
  <path d="M 190 280 L 210 300 L 202.92893218813452 307.0710678118655 L 182.92893218813452 287.0710678118655 Z" fill="#000000"/>
  <path d="M 40 120 L 50 130 L 42.928932188134524 137.07106781186548 L 32.928932188134524 127.07106781186548 Z" fill="#000000"/>
  <path d="M 90 170 L 110 190 L 102.92893218813452 197.07106781186548 L 82.92893218813452 177.07106781186548 Z" fill="#000000"/>
  <path d="M 120 200 L 150 230 L 142.92893218813452 237.07106781186548 L 112.92893218813452 207.07106781186548 Z" fill="#000000"/>
  <path d="M 160 240 L 200 280 L 192.92893218813452 287.0710678118655 L 152.92893218813452 247.07106781186548 Z" fill="#000000"/>
  <path d="M 220 300 L 230 310 L 222.92893218813452 317.0710678118655 L 212.92893218813452 307.0710678118655 Z" fill="#000000"/>
  <path d="M 70 140 L 90 160 L 82.92893218813452 167.07106781186548 L 62.928932188134524 147.07106781186548 Z" fill="#000000"/>
  <path d="M 120 190 L 170 240 L 162.92893218813452 247.07106781186548 L 112.92893218813452 197.07106781186548 Z" fill="#000000"/>
  <path d="M 180 250 L 200 270 L 192.92893218813452 277.0710678118655 L 172.92893218813452 257.0710678118655 Z" fill="#000000"/>
  <path d="M 220 290 L 250 320 L 242.92893218813452 327.0710678118655 L 212.92893218813452 297.0710678118655 Z" fill="#000000"/>
  <path d="M 40 100 L 50 110 L 42.928932188134524 117.07106781186548 L 32.928932188134524 107.07106781186548 Z" fill="#000000"/>
  <path d="M 60 120 L 70 130 L 62.928932188134524 137.07106781186548 L 52.928932188134524 127.07106781186548 Z" fill="#000000"/>
  <path d="M 90 150 L 120 180 L 112.92893218813452 187.07106781186548 L 82.92893218813452 157.07106781186548 Z" fill="#000000"/>
  <path d="M 130 190 L 150 210 L 142.92893218813452 217.07106781186548 L 122.92893218813452 197.07106781186548 Z" fill="#000000"/>
  <path d="M 160 220 L 170 230 L 162.92893218813452 237.07106781186548 L 152.92893218813452 227.07106781186548 Z" fill="#000000"/>
  <path d="M 190 250 L 220 280 L 212.92893218813452 287.0710678118655 L 182.92893218813452 257.0710678118655 Z" fill="#000000"/>
  <path d="M 230 290 L 250 310 L 242.92893218813452 317.0710678118655 L 222.92893218813452 297.0710678118655 Z" fill="#000000"/>
  <path d="M 40 90 L 60 110 L 52.928932188134524 117.07106781186548 L 32.928932188134524 97.07106781186548 Z" fill="#000000"/>
  <path d="M 70 120 L 80 130 L 72.92893218813452 137.07106781186548 L 62.928932188134524 127.07106781186548 Z" fill="#000000"/>
  <path d="M 110 160 L 160 210 L 152.92893218813452 217.07106781186548 L 102.92893218813452 167.07106781186548 Z" fill="#000000"/>
  <path d="M 180 230 L 190 240 L 182.92893218813452 247.07106781186548 L 172.92893218813452 237.07106781186548 Z" fill="#000000"/>
  <path d="M 210 260 L 230 280 L 222.92893218813452 287.0710678118655 L 202.92893218813452 267.0710678118655 Z" fill="#000000"/>
  <path d="M 240 290 L 260 310 L 252.92893218813452 317.0710678118655 L 232.92893218813452 297.0710678118655 Z" fill="#000000"/>
  <path d="M 270 320 L 280 330 L 272.9289321881345 337.0710678118655 L 262.9289321881345 327.0710678118655 Z" fill="#000000"/>
  <path d="M 40 80 L 50 90 L 42.928932188134524 97.07106781186548 L 32.928932188134524 87.07106781186548 Z" fill="#000000"/>
  <path d="M 60 100 L 70 110 L 62.928932188134524 117.07106781186548 L 52.928932188134524 107.07106781186548 Z" fill="#000000"/>
  <path d="M 80 120 L 110 150 L 102.92893218813452 157.07106781186548 L 72.92893218813452 127.07106781186548 Z" fill="#000000"/>
  <path d="M 120 160 L 130 170 L 122.92893218813452 177.07106781186548 L 112.92893218813452 167.07106781186548 Z" fill="#000000"/>
  <path d="M 140 180 L 150 190 L 142.92893218813452 197.07106781186548 L 132.92893218813452 187.07106781186548 Z" fill="#000000"/>
  <path d="M 200 240 L 220 260 L 212.92893218813452 267.0710678118655 L 192.92893218813452 247.07106781186548 Z" fill="#000000"/>
  <path d="M 240 280 L 250 290 L 242.92893218813452 297.0710678118655 L 232.92893218813452 287.0710678118655 Z" fill="#000000"/>
  <path d="M 260 300 L 290 330 L 282.9289321881345 337.0710678118655 L 252.92893218813452 307.0710678118655 Z" fill="#000000"/>
  <path d="M 40 70 L 50 80 L 42.928932188134524 87.07106781186548 L 32.928932188134524 77.07106781186548 Z" fill="#000000"/>
  <path d="M 70 100 L 80 110 L 72.92893218813452 117.07106781186548 L 62.928932188134524 107.07106781186548 Z" fill="#000000"/>
  <path d="M 90 120 L 100 130 L 92.92893218813452 137.07106781186548 L 82.92893218813452 127.07106781186548 Z" fill="#000000"/>
  <path d="M 110 140 L 140 170 L 132.92893218813452 177.07106781186548 L 102.92893218813452 147.07106781186548 Z" fill="#000000"/>
  <path d="M 150 180 L 160 190 L 152.92893218813452 197.07106781186548 L 142.92893218813452 187.07106781186548 Z" fill="#000000"/>
  <path d="M 200 230 L 210 240 L 202.92893218813452 247.07106781186548 L 192.92893218813452 237.07106781186548 Z" fill="#000000"/>
  <path d="M 230 260 L 260 290 L 252.92893218813452 297.0710678118655 L 222.92893218813452 267.0710678118655 Z" fill="#000000"/>
  <path d="M 270 300 L 280 310 L 272.9289321881345 317.0710678118655 L 262.9289321881345 307.0710678118655 Z" fill="#000000"/>
  <path d="M 40 60 L 50 70 L 42.928932188134524 77.07106781186548 L 32.928932188134524 67.07106781186548 Z" fill="#000000"/>
  <path d="M 60 80 L 70 90 L 62.928932188134524 97.07106781186548 L 52.928932188134524 87.07106781186548 Z" fill="#000000"/>
  <path d="M 80 100 L 90 110 L 82.92893218813452 117.07106781186548 L 72.92893218813452 107.07106781186548 Z" fill="#000000"/>
  <path d="M 100 120 L 120 140 L 112.92893218813452 147.07106781186548 L 92.92893218813452 127.07106781186548 Z" fill="#000000"/>
  <path d="M 160 180 L 200 220 L 192.92893218813452 227.07106781186548 L 152.92893218813452 187.07106781186548 Z" fill="#000000"/>
  <path d="M 220 240 L 250 270 L 242.92893218813452 277.0710678118655 L 212.92893218813452 247.07106781186548 Z" fill="#000000"/>
  <path d="M 260 280 L 270 290 L 262.9289321881345 297.0710678118655 L 252.92893218813452 287.0710678118655 Z" fill="#000000"/>
  <path d="M 280 300 L 310 330 L 302.9289321881345 337.0710678118655 L 272.9289321881345 307.0710678118655 Z" fill="#000000"/>
  <path d="M 40 50 L 50 60 L 42.928932188134524 67.07106781186548 L 32.928932188134524 57.071067811865476 Z" fill="#000000"/>
  <path d="M 60 70 L 80 90 L 72.92893218813452 97.07106781186548 L 52.928932188134524 77.07106781186548 Z" fill="#000000"/>
  <path d="M 90 100 L 100 110 L 92.92893218813452 117.07106781186548 L 82.92893218813452 107.07106781186548 Z" fill="#000000"/>
  <path d="M 150 160 L 180 190 L 172.92893218813452 197.07106781186548 L 142.92893218813452 167.07106781186548 Z" fill="#000000"/>
  <path d="M 190 200 L 210 220 L 202.92893218813452 227.07106781186548 L 182.92893218813452 207.07106781186548 Z" fill="#000000"/>
  <path d="M 230 240 L 250 260 L 242.92893218813452 267.0710678118655 L 222.92893218813452 247.07106781186548 Z" fill="#000000"/>
  <path d="M 270 280 L 280 290 L 272.9289321881345 297.0710678118655 L 262.9289321881345 287.0710678118655 Z" fill="#000000"/>
  <path d="M 290 300 L 300 310 L 292.9289321881345 317.0710678118655 L 282.9289321881345 307.0710678118655 Z" fill="#000000"/>
  <path d="M 40 40 L 50 50 L 42.928932188134524 57.071067811865476 L 32.928932188134524 47.071067811865476 Z" fill="#000000"/>
  <path d="M 60 60 L 90 90 L 82.92893218813452 97.07106781186548 L 52.928932188134524 67.07106781186548 Z" fill="#000000"/>
  <path d="M 100 100 L 110 110 L 102.92893218813452 117.07106781186548 L 92.92893218813452 107.07106781186548 Z" fill="#000000"/>
  <path d="M 140 140 L 150 150 L 142.92893218813452 157.07106781186548 L 132.92893218813452 147.07106781186548 Z" fill="#000000"/>
  <path d="M 170 170 L 200 200 L 192.92893218813452 207.07106781186548 L 162.92893218813452 177.07106781186548 Z" fill="#000000"/>
  <path d="M 220 220 L 250 250 L 242.92893218813452 257.0710678118655 L 212.92893218813452 227.07106781186548 Z" fill="#000000"/>
  <path d="M 260 260 L 270 270 L 262.9289321881345 277.0710678118655 L 252.92893218813452 267.0710678118655 Z" fill="#000000"/>
  <path d="M 280 280 L 320 320 L 312.9289321881345 327.0710678118655 L 272.9289321881345 287.0710678118655 Z" fill="#000000"/>
  <path d="M 50 40 L 60 50 L 52.928932188134524 57.071067811865476 L 42.928932188134524 47.071067811865476 Z" fill="#000000"/>
  <path d="M 70 60 L 90 80 L 82.92893218813452 87.07106781186548 L 62.928932188134524 67.07106781186548 Z" fill="#000000"/>
  <path d="M 100 90 L 110 100 L 102.92893218813452 107.07106781186548 L 92.92893218813452 97.07106781186548 Z" fill="#000000"/>
  <path d="M 120 110 L 130 120 L 122.92893218813452 127.07106781186548 L 112.92893218813452 117.07106781186548 Z" fill="#000000"/>
  <path d="M 140 130 L 160 150 L 152.92893218813452 157.07106781186548 L 132.92893218813452 137.07106781186548 Z" fill="#000000"/>
  <path d="M 180 170 L 200 190 L 192.92893218813452 197.07106781186548 L 172.92893218813452 177.07106781186548 Z" fill="#000000"/>
  <path d="M 220 210 L 230 220 L 222.92893218813452 227.07106781186548 L 212.92893218813452 217.07106781186548 Z" fill="#000000"/>
  <path d="M 240 230 L 260 250 L 252.92893218813452 257.0710678118655 L 232.92893218813452 237.07106781186548 Z" fill="#000000"/>
  <path d="M 280 270 L 290 280 L 282.9289321881345 287.0710678118655 L 272.9289321881345 277.0710678118655 Z" fill="#000000"/>
  <path d="M 300 290 L 320 310 L 312.9289321881345 317.0710678118655 L 292.9289321881345 297.0710678118655 Z" fill="#000000"/>
  <path d="M 60 40 L 70 50 L 62.928932188134524 57.071067811865476 L 52.928932188134524 47.071067811865476 Z" fill="#000000"/>
  <path d="M 80 60 L 90 70 L 82.92893218813452 77.07106781186548 L 72.92893218813452 67.07106781186548 Z" fill="#000000"/>
  <path d="M 100 80 L 110 90 L 102.92893218813452 97.07106781186548 L 92.92893218813452 87.07106781186548 Z" fill="#000000"/>
  <path d="M 120 100 L 130 110 L 122.92893218813452 117.07106781186548 L 112.92893218813452 107.07106781186548 Z" fill="#000000"/>
  <path d="M 190 170 L 220 200 L 212.92893218813452 207.07106781186548 L 182.92893218813452 177.07106781186548 Z" fill="#000000"/>
  <path d="M 230 210 L 250 230 L 242.92893218813452 237.07106781186548 L 222.92893218813452 217.07106781186548 Z" fill="#000000"/>
  <path d="M 260 240 L 270 250 L 262.9289321881345 257.0710678118655 L 252.92893218813452 247.07106781186548 Z" fill="#000000"/>
  <path d="M 280 260 L 290 270 L 282.9289321881345 277.0710678118655 L 272.9289321881345 267.0710678118655 Z" fill="#000000"/>
  <path d="M 300 280 L 310 290 L 302.9289321881345 297.0710678118655 L 292.9289321881345 287.0710678118655 Z" fill="#000000"/>
  <path d="M 70 40 L 80 50 L 72.92893218813452 57.071067811865476 L 62.928932188134524 47.071067811865476 Z" fill="#000000"/>
  <path d="M 100 70 L 110 80 L 102.92893218813452 87.07106781186548 L 92.92893218813452 77.07106781186548 Z" fill="#000000"/>
  <path d="M 120 90 L 130 100 L 122.92893218813452 107.07106781186548 L 112.92893218813452 97.07106781186548 Z" fill="#000000"/>
  <path d="M 160 130 L 170 140 L 162.92893218813452 147.07106781186548 L 152.92893218813452 137.07106781186548 Z" fill="#000000"/>
  <path d="M 180 150 L 190 160 L 182.92893218813452 167.07106781186548 L 172.92893218813452 157.07106781186548 Z" fill="#000000"/>
  <path d="M 210 180 L 230 200 L 222.92893218813452 207.07106781186548 L 202.92893218813452 187.07106781186548 Z" fill="#000000"/>
  <path d="M 240 210 L 250 220 L 242.92893218813452 227.07106781186548 L 232.92893218813452 217.07106781186548 Z" fill="#000000"/>
  <path d="M 270 240 L 300 270 L 292.9289321881345 277.0710678118655 L 262.9289321881345 247.07106781186548 Z" fill="#000000"/>
  <path d="M 310 280 L 320 290 L 312.9289321881345 297.0710678118655 L 302.9289321881345 287.0710678118655 Z" fill="#000000"/>
  <path d="M 80 40 L 90 50 L 82.92893218813452 57.071067811865476 L 72.92893218813452 47.071067811865476 Z" fill="#000000"/>
  <path d="M 100 60 L 110 70 L 102.92893218813452 77.07106781186548 L 92.92893218813452 67.07106781186548 Z" fill="#000000"/>
  <path d="M 120 80 L 130 90 L 122.92893218813452 97.07106781186548 L 112.92893218813452 87.07106781186548 Z" fill="#000000"/>
  <path d="M 140 100 L 150 110 L 142.92893218813452 117.07106781186548 L 132.92893218813452 107.07106781186548 Z" fill="#000000"/>
  <path d="M 160 120 L 170 130 L 162.92893218813452 137.07106781186548 L 152.92893218813452 127.07106781186548 Z" fill="#000000"/>
  <path d="M 200 160 L 220 180 L 212.92893218813452 187.07106781186548 L 192.92893218813452 167.07106781186548 Z" fill="#000000"/>
  <path d="M 240 200 L 310 270 L 302.9289321881345 277.0710678118655 L 232.92893218813452 207.07106781186548 Z" fill="#000000"/>
  <path d="M 320 280 L 330 290 L 322.9289321881345 297.0710678118655 L 312.9289321881345 287.0710678118655 Z" fill="#000000"/>
  <path d="M 90 40 L 110 60 L 102.92893218813452 67.07106781186548 L 82.92893218813452 47.071067811865476 Z" fill="#000000"/>
  <path d="M 120 70 L 130 80 L 122.92893218813452 87.07106781186548 L 112.92893218813452 77.07106781186548 Z" fill="#000000"/>
  <path d="M 140 90 L 150 100 L 142.92893218813452 107.07106781186548 L 132.92893218813452 97.07106781186548 Z" fill="#000000"/>
  <path d="M 200 150 L 210 160 L 202.92893218813452 167.07106781186548 L 192.92893218813452 157.07106781186548 Z" fill="#000000"/>
  <path d="M 220 170 L 230 180 L 222.92893218813452 187.07106781186548 L 212.92893218813452 177.07106781186548 Z" fill="#000000"/>
  <path d="M 260 210 L 280 230 L 272.9289321881345 237.07106781186548 L 252.92893218813452 217.07106781186548 Z" fill="#000000"/>
  <path d="M 300 250 L 310 260 L 302.9289321881345 267.0710678118655 L 292.9289321881345 257.0710678118655 Z" fill="#000000"/>
  <path d="M 100 40 L 110 50 L 102.92893218813452 57.071067811865476 L 92.92893218813452 47.071067811865476 Z" fill="#000000"/>
  <path d="M 120 60 L 140 80 L 132.92893218813452 87.07106781186548 L 112.92893218813452 67.07106781186548 Z" fill="#000000"/>
  <path d="M 150 90 L 200 140 L 192.92893218813452 147.07106781186548 L 142.92893218813452 97.07106781186548 Z" fill="#000000"/>
  <path d="M 220 160 L 260 200 L 252.92893218813452 207.07106781186548 L 212.92893218813452 167.07106781186548 Z" fill="#000000"/>
  <path d="M 270 210 L 280 220 L 272.9289321881345 227.07106781186548 L 262.9289321881345 217.07106781186548 Z" fill="#000000"/>
  <path d="M 300 240 L 320 260 L 312.9289321881345 267.0710678118655 L 292.9289321881345 247.07106781186548 Z" fill="#000000"/>
  <path d="M 130 60 L 150 80 L 142.92893218813452 87.07106781186548 L 122.92893218813452 67.07106781186548 Z" fill="#000000"/>
  <path d="M 190 120 L 210 140 L 202.92893218813452 147.07106781186548 L 182.92893218813452 127.07106781186548 Z" fill="#000000"/>
  <path d="M 240 170 L 250 180 L 242.92893218813452 187.07106781186548 L 232.92893218813452 177.07106781186548 Z" fill="#000000"/>
  <path d="M 260 190 L 270 200 L 262.9289321881345 207.07106781186548 L 252.92893218813452 197.07106781186548 Z" fill="#000000"/>
  <path d="M 280 210 L 290 220 L 282.9289321881345 227.07106781186548 L 272.9289321881345 217.07106781186548 Z" fill="#000000"/>
  <path d="M 310 240 L 330 260 L 322.9289321881345 267.0710678118655 L 302.9289321881345 247.07106781186548 Z" fill="#000000"/>
  <path d="M 170 90 L 200 120 L 192.92893218813452 127.07106781186548 L 162.92893218813452 97.07106781186548 Z" fill="#000000"/>
  <path d="M 230 150 L 270 190 L 262.9289321881345 197.07106781186548 L 222.92893218813452 157.07106781186548 Z" fill="#000000"/>
  <path d="M 300 220 L 330 250 L 322.9289321881345 257.0710678118655 L 292.9289321881345 227.07106781186548 Z" fill="#000000"/>
  <path d="M 150 60 L 160 70 L 152.92893218813452 77.07106781186548 L 142.92893218813452 67.07106781186548 Z" fill="#000000"/>
  <path d="M 170 80 L 190 100 L 182.92893218813452 107.07106781186548 L 162.92893218813452 87.07106781186548 Z" fill="#000000"/>
  <path d="M 210 120 L 230 140 L 222.92893218813452 147.07106781186548 L 202.92893218813452 127.07106781186548 Z" fill="#000000"/>
  <path d="M 250 160 L 280 190 L 272.9289321881345 197.07106781186548 L 242.92893218813452 167.07106781186548 Z" fill="#000000"/>
  <path d="M 290 200 L 310 220 L 302.9289321881345 227.07106781186548 L 282.9289321881345 207.07106781186548 Z" fill="#000000"/>
  <path d="M 150 50 L 160 60 L 152.92893218813452 67.07106781186548 L 142.92893218813452 57.071067811865476 Z" fill="#000000"/>
  <path d="M 180 80 L 210 110 L 202.92893218813452 117.07106781186548 L 172.92893218813452 87.07106781186548 Z" fill="#000000"/>
  <path d="M 230 130 L 240 140 L 232.92893218813452 147.07106781186548 L 222.92893218813452 137.07106781186548 Z" fill="#000000"/>
  <path d="M 250 150 L 260 160 L 252.92893218813452 167.07106781186548 L 242.92893218813452 157.07106781186548 Z" fill="#000000"/>
  <path d="M 270 170 L 280 180 L 272.9289321881345 187.07106781186548 L 262.9289321881345 177.07106781186548 Z" fill="#000000"/>
  <path d="M 300 200 L 310 210 L 302.9289321881345 217.07106781186548 L 292.9289321881345 207.07106781186548 Z" fill="#000000"/>
  <path d="M 160 50 L 170 60 L 162.92893218813452 67.07106781186548 L 152.92893218813452 57.071067811865476 Z" fill="#000000"/>
  <path d="M 190 80 L 210 100 L 202.92893218813452 107.07106781186548 L 182.92893218813452 87.07106781186548 Z" fill="#000000"/>
  <path d="M 220 110 L 240 130 L 232.92893218813452 137.07106781186548 L 212.92893218813452 117.07106781186548 Z" fill="#000000"/>
  <path d="M 250 140 L 270 160 L 262.9289321881345 167.07106781186548 L 242.92893218813452 147.07106781186548 Z" fill="#000000"/>
  <path d="M 280 170 L 300 190 L 292.9289321881345 197.07106781186548 L 272.9289321881345 177.07106781186548 Z" fill="#000000"/>
  <path d="M 320 210 L 330 220 L 322.9289321881345 227.07106781186548 L 312.9289321881345 217.07106781186548 Z" fill="#000000"/>
  <path d="M 160 40 L 170 50 L 162.92893218813452 57.071067811865476 L 152.92893218813452 47.071067811865476 Z" fill="#000000"/>
  <path d="M 180 60 L 190 70 L 182.92893218813452 77.07106781186548 L 172.92893218813452 67.07106781186548 Z" fill="#000000"/>
  <path d="M 220 100 L 230 110 L 222.92893218813452 117.07106781186548 L 212.92893218813452 107.07106781186548 Z" fill="#000000"/>
  <path d="M 270 150 L 280 160 L 272.9289321881345 167.07106781186548 L 262.9289321881345 157.07106781186548 Z" fill="#000000"/>
  <path d="M 300 180 L 320 200 L 312.9289321881345 207.07106781186548 L 292.9289321881345 187.07106781186548 Z" fill="#000000"/>
  <path d="M 200 70 L 210 80 L 202.92893218813452 87.07106781186548 L 192.92893218813452 77.07106781186548 Z" fill="#000000"/>
  <path d="M 240 110 L 250 120 L 242.92893218813452 127.07106781186548 L 232.92893218813452 117.07106781186548 Z" fill="#000000"/>
  <path d="M 260 130 L 300 170 L 292.9289321881345 177.07106781186548 L 252.92893218813452 137.07106781186548 Z" fill="#000000"/>
  <path d="M 200 60 L 230 90 L 222.92893218813452 97.07106781186548 L 192.92893218813452 67.07106781186548 Z" fill="#000000"/>
  <path d="M 240 100 L 250 110 L 242.92893218813452 117.07106781186548 L 232.92893218813452 107.07106781186548 Z" fill="#000000"/>
  <path d="M 260 120 L 310 170 L 302.9289321881345 177.07106781186548 L 252.92893218813452 127.07106781186548 Z" fill="#000000"/>
  <path d="M 190 40 L 200 50 L 192.92893218813452 57.071067811865476 L 182.92893218813452 47.071067811865476 Z" fill="#000000"/>
  <path d="M 230 80 L 250 100 L 242.92893218813452 107.07106781186548 L 222.92893218813452 87.07106781186548 Z" fill="#000000"/>
  <path d="M 270 120 L 290 140 L 282.9289321881345 147.07106781186548 L 262.9289321881345 127.07106781186548 Z" fill="#000000"/>
  <path d="M 320 170 L 330 180 L 322.9289321881345 187.07106781186548 L 312.9289321881345 177.07106781186548 Z" fill="#000000"/>
  <path d="M 200 40 L 220 60 L 212.92893218813452 67.07106781186548 L 192.92893218813452 47.071067811865476 Z" fill="#000000"/>
  <path d="M 240 80 L 250 90 L 242.92893218813452 97.07106781186548 L 232.92893218813452 87.07106781186548 Z" fill="#000000"/>
  <path d="M 260 100 L 270 110 L 262.9289321881345 117.07106781186548 L 252.92893218813452 107.07106781186548 Z" fill="#000000"/>
  <path d="M 280 120 L 290 130 L 282.9289321881345 137.07106781186548 L 272.9289321881345 127.07106781186548 Z" fill="#000000"/>
  <path d="M 310 150 L 320 160 L 312.9289321881345 167.07106781186548 L 302.9289321881345 157.07106781186548 Z" fill="#000000"/>
  <path d="M 210 40 L 220 50 L 212.92893218813452 57.071067811865476 L 202.92893218813452 47.071067811865476 Z" fill="#000000"/>
  <path d="M 230 60 L 240 70 L 232.92893218813452 77.07106781186548 L 222.92893218813452 67.07106781186548 Z" fill="#000000"/>
  <path d="M 260 90 L 280 110 L 272.9289321881345 117.07106781186548 L 252.92893218813452 97.07106781186548 Z" fill="#000000"/>
  <path d="M 290 120 L 300 130 L 292.9289321881345 137.07106781186548 L 282.9289321881345 127.07106781186548 Z" fill="#000000"/>
  <path d="M 220 40 L 230 50 L 222.92893218813452 57.071067811865476 L 212.92893218813452 47.071067811865476 Z" fill="#000000"/>
  <path d="M 260 80 L 270 90 L 262.9289321881345 97.07106781186548 L 252.92893218813452 87.07106781186548 Z" fill="#000000"/>
  <path d="M 280 100 L 290 110 L 282.9289321881345 117.07106781186548 L 272.9289321881345 107.07106781186548 Z" fill="#000000"/>
  <path d="M 300 120 L 310 130 L 302.9289321881345 137.07106781186548 L 292.9289321881345 127.07106781186548 Z" fill="#000000"/>
  <path d="M 230 40 L 250 60 L 242.92893218813452 67.07106781186548 L 222.92893218813452 47.071067811865476 Z" fill="#000000"/>
  <path d="M 260 70 L 270 80 L 262.9289321881345 87.07106781186548 L 252.92893218813452 77.07106781186548 Z" fill="#000000"/>
  <path d="M 290 100 L 300 110 L 292.9289321881345 117.07106781186548 L 282.9289321881345 107.07106781186548 Z" fill="#000000"/>
  <path d="M 320 130 L 330 140 L 322.9289321881345 147.07106781186548 L 312.9289321881345 137.07106781186548 Z" fill="#000000"/>
  <path d="M 240 40 L 250 50 L 242.92893218813452 57.071067811865476 L 232.92893218813452 47.071067811865476 Z" fill="#000000"/>
  <path d="M 260 60 L 270 70 L 262.9289321881345 77.07106781186548 L 252.92893218813452 67.07106781186548 Z" fill="#000000"/>
  <path d="M 280 80 L 290 90 L 282.9289321881345 97.07106781186548 L 272.9289321881345 87.07106781186548 Z" fill="#000000"/>
  <path d="M 300 100 L 310 110 L 302.9289321881345 117.07106781186548 L 292.9289321881345 107.07106781186548 Z" fill="#000000"/>
  <path d="M 260 50 L 270 60 L 262.9289321881345 67.07106781186548 L 252.92893218813452 57.071067811865476 Z" fill="#000000"/>
  <path d="M 280 70 L 300 90 L 292.9289321881345 97.07106781186548 L 272.9289321881345 77.07106781186548 Z" fill="#000000"/>
  <path d="M 310 100 L 320 110 L 312.9289321881345 117.07106781186548 L 302.9289321881345 107.07106781186548 Z" fill="#000000"/>
  <path d="M 260 40 L 270 50 L 262.9289321881345 57.071067811865476 L 252.92893218813452 47.071067811865476 Z" fill="#000000"/>
  <path d="M 280 60 L 310 90 L 302.9289321881345 97.07106781186548 L 272.9289321881345 67.07106781186548 Z" fill="#000000"/>
  <path d="M 320 100 L 330 110 L 322.9289321881345 117.07106781186548 L 312.9289321881345 107.07106781186548 Z" fill="#000000"/>
  <path d="M 270 40 L 280 50 L 272.9289321881345 57.071067811865476 L 262.9289321881345 47.071067811865476 Z" fill="#000000"/>
  <path d="M 290 60 L 310 80 L 302.9289321881345 87.07106781186548 L 282.9289321881345 67.07106781186548 Z" fill="#000000"/>
  <path d="M 320 90 L 330 100 L 322.9289321881345 107.07106781186548 L 312.9289321881345 97.07106781186548 Z" fill="#000000"/>
  <path d="M 280 40 L 290 50 L 282.9289321881345 57.071067811865476 L 272.9289321881345 47.071067811865476 Z" fill="#000000"/>
  <path d="M 300 60 L 310 70 L 302.9289321881345 77.07106781186548 L 292.9289321881345 67.07106781186548 Z" fill="#000000"/>
  <path d="M 320 80 L 330 90 L 322.9289321881345 97.07106781186548 L 312.9289321881345 87.07106781186548 Z" fill="#000000"/>
  <path d="M 290 40 L 300 50 L 292.9289321881345 57.071067811865476 L 282.9289321881345 47.071067811865476 Z" fill="#000000"/>
  <path d="M 320 70 L 330 80 L 322.9289321881345 87.07106781186548 L 312.9289321881345 77.07106781186548 Z" fill="#000000"/>
  <path d="M 300 40 L 310 50 L 302.9289321881345 57.071067811865476 L 292.9289321881345 47.071067811865476 Z" fill="#000000"/>
  <path d="M 320 60 L 330 70 L 322.9289321881345 77.07106781186548 L 312.9289321881345 67.07106781186548 Z" fill="#000000"/>
  <path d="M 310 40 L 330 60 L 322.9289321881345 67.07106781186548 L 302.9289321881345 47.071067811865476 Z" fill="#000000"/>
  <path d="M 320 40 L 330 50 L 322.9289321881345 57.071067811865476 L 312.9289321881345 47.071067811865476 Z" fill="#000000"/>
  </g>
</svg>